<?xml version="1.0" encoding="UTF-8"?>
<svg id="Capa_2" data-name="Capa 2" xmlns="http://www.w3.org/2000/svg" viewBox="0 0 321.22 421.52">
  <defs>
    <style>
      .cls-1 {
        fill: #706f6f;
      }

      .cls-1, .cls-2 {
        stroke: #fff;
        stroke-miterlimit: 10;
      }

      .cls-2 {
        fill: #063;
      }
    </style>
  </defs>
  <g id="EcologiX">
    <g>
      <path class="cls-1" d="m53.76,161.15c-1.33.23-8.92,1.71-13.76,8.95-4.48,6.7-3.47,13.64-3.21,15.14,7.34,8.56,14.68,17.13,22.02,25.69-1.92,1.74-4.73,4.73-6.88,9.18-2.88,5.95-3.08,11.4-2.98,14.22-12.85,3.52-25.69,7.03-38.54,10.55-1.09,5.89-1.95,12.93-2.06,20.87-.13,9.42.83,17.65,2.06,24.32,13.15,4.74,26.3,9.48,39.46,14.22.14,2.26.55,5.11,1.61,8.26,1.96,5.85,5.18,9.88,7.34,12.16-6.96,11.01-13.92,22.02-20.87,33.03,4.03,5.69,9.09,12.06,15.37,18.58,6.17,6.41,12.22,11.63,17.66,15.83,12.23-6.65,24.47-13.3,36.7-19.96,1.42,1.59,4.65,4.77,9.86,6.42,3.61,1.14,6.77,1.1,8.72.92,4.13,12.92,8.26,25.84,12.39,38.77,5.3,1.16,11.46,2.12,18.35,2.52,10.76.63,20.12-.3,27.53-1.61,3.98-13.15,7.95-26.3,11.93-39.46,2.25.03,6.47-.22,11.01-2.52,2.99-1.52,5.1-3.41,6.42-4.82,10.78,6.88,21.56,13.76,32.34,20.65,6.39-2.95,15.63-8.17,24.55-17.2,6.22-6.3,10.46-12.62,13.3-17.66-6.42-11.47-12.85-22.94-19.27-34.41,1.81-2.84,3.79-6.44,5.51-10.78,1.58-3.99,2.58-7.67,3.21-10.78,13.3-4.74,26.61-9.48,39.91-14.22,1.14-4.96,2.11-11.08,2.29-18.12.24-9.19-.94-17.01-2.29-22.94-13.92-4.89-27.83-9.79-41.75-14.68-.07-2.11-.46-5.68-2.29-9.63-1.93-4.16-4.58-6.85-6.19-8.26,7.19-8.95,14.38-17.89,21.56-26.84-.61-3.64-1.97-9.08-5.28-14.91-2.64-4.65-5.65-8.04-8.03-10.32-22.33,10.21-44.66,20.42-66.98,30.62v26.72c20.1,17.39,27.5,45.46,18.58,70.42-8.83,24.71-31.97,41.66-58.27,42.67-27.82.97-53.39-15.6-63.77-41.29-10.21-25.28-3.73-54.48,16.29-73.18.23-8.81.46-17.61.69-26.42-21.41-10.23-42.82-20.47-64.23-30.7Z"/>
      <path class="cls-2" d="m.5,1.03c26.68.78,47.33,6.37,60.6,11.01,47.42,16.55,87.1,50.93,88.09,73.41,0,0,0,.18.46,21.56-17.06-17.02-32.99-27.74-44.5-34.41-22.75-13.18-52.1-24.37-52.31-23.89,0,.01,0,.03.01.04,1.17,1.47,58.65,49.64,66.98,56.89,25.13,21.87,42.22,53.68,42.22,53.68,10.75-16.84,25.38-36.68,44.95-56.89,32.17-33.21,63.87-48.93,62.4-51.38-1.38-2.3-29.28,10.79-55.05,26.61-18.31,11.23-32.56,22.02-42.21,29.82,1.54-18.21,6.85-31.82,11.93-41.29C219.14.73,314.12.43,320.46.5c1.04,20.08-.31,55.22-19.87,90.91-9.63,17.56-23.38,42.64-52.76,53.68-18.81,7.07-36.16,5.41-45.88,3.67-12.93,15.43-17.68,29.17-19.69,38.56-5.92,27.74,5.17,50.25-8.53,64.47-4.05,4.2-8.79,6.15-11.69,7.09-3.28-.56-8.51-1.94-12.86-5.96-14.04-13-1.66-37.62-8.72-68.36-2.1-9.13-6.72-22.33-18.35-37.16-9.39,1.78-24.99,3.32-42.21-2.29-29.41-9.59-44.12-33.74-54.6-50.93C3.41,58.22.37,21.89.5,1.03Z"/>
    </g>
  </g>
</svg>