<?xml version="1.0" encoding="UTF-8"?>
<svg id="Capa_2" data-name="Capa 2" xmlns="http://www.w3.org/2000/svg" viewBox="0 0 552.12 130.74">
  <defs>
    <style>
      .cls-1 {
        fill: #706f6f;
      }

      .cls-1, .cls-2 {
        stroke: #fff;
        stroke-miterlimit: 10;
      }

      .cls-2 {
        fill: #063;
      }

      .cls-3 {
        fill: #1d1d1b;
      }
    </style>
  </defs>
  <g id="EcologiX">
    <g>
      <g>
        <path class="cls-3" d="m58.56,29.68H18v21.83h37.35c2.75,0,4.8.62,6.15,1.85,1.35,1.23,2.03,2.86,2.03,4.88s-.67,3.67-2,4.94c-1.33,1.27-3.39,1.91-6.18,1.91H18v25.28h41.95c2.83,0,4.96.66,6.4,1.97s2.15,3.06,2.15,5.24-.72,3.81-2.15,5.12c-1.43,1.31-3.57,1.97-6.4,1.97H11.03c-3.92,0-6.74-.87-8.46-2.61-1.72-1.74-2.58-4.55-2.58-8.43V26.83c0-2.59.38-4.7,1.15-6.34s1.97-2.83,3.61-3.58c1.64-.75,3.73-1.12,6.28-1.12h47.53c2.87,0,5,.64,6.4,1.91,1.39,1.27,2.09,2.94,2.09,5s-.7,3.79-2.09,5.06c-1.39,1.27-3.53,1.91-6.4,1.91Z"/>
        <path class="cls-3" d="m141.01,85.7c0,2.06-.62,4.26-1.85,6.61-1.23,2.34-3.11,4.58-5.64,6.7-2.53,2.12-5.71,3.83-9.55,5.12s-8.16,1.94-12.97,1.94c-10.23,0-18.21-2.98-23.95-8.94-5.74-5.96-8.61-13.95-8.61-23.98,0-6.79,1.31-12.79,3.94-18.01,2.63-5.21,6.43-9.25,11.4-12.09,4.97-2.85,10.91-4.27,17.82-4.27,4.28,0,8.21.63,11.79,1.88,3.58,1.25,6.61,2.87,9.09,4.85,2.49,1.98,4.38,4.09,5.7,6.34,1.31,2.24,1.97,4.33,1.97,6.27s-.74,3.66-2.21,5.03c-1.48,1.37-3.26,2.06-5.37,2.06-1.38,0-2.52-.35-3.43-1.06-.91-.71-1.93-1.85-3.06-3.43-2.02-3.07-4.13-5.37-6.33-6.91-2.2-1.54-5-2.3-8.4-2.3-4.89,0-8.83,1.91-11.82,5.73-2.99,3.82-4.49,9.04-4.49,15.67,0,3.11.38,5.97,1.15,8.58.77,2.61,1.88,4.83,3.33,6.67,1.46,1.84,3.21,3.23,5.27,4.18,2.06.95,4.32,1.42,6.79,1.42,3.31,0,6.15-.77,8.52-2.3s4.46-3.88,6.27-7.03c1.01-1.86,2.1-3.31,3.27-4.36,1.17-1.05,2.61-1.58,4.3-1.58,2.02,0,3.7.77,5.03,2.3s2,3.17,2,4.91Z"/>
        <path class="cls-3" d="m248.56,96.12V24.34c0-3.31.74-5.82,2.21-7.52,1.47-1.7,3.46-2.55,5.97-2.55s4.53.84,6.06,2.52c1.54,1.68,2.3,4.19,2.3,7.55v71.78c0,3.35-.78,5.87-2.33,7.55-1.56,1.68-3.57,2.52-6.03,2.52s-4.39-.87-5.91-2.61-2.27-4.22-2.27-7.46Z"/>
        <path class="cls-3" d="m344.17,72.54c0,4.93-.77,9.48-2.3,13.64-1.54,4.16-3.76,7.74-6.67,10.73s-6.39,5.28-10.43,6.88c-4.04,1.6-8.59,2.39-13.64,2.39s-9.52-.81-13.52-2.42c-4-1.62-7.47-3.93-10.4-6.94s-5.15-6.57-6.67-10.67-2.27-8.64-2.27-13.61.77-9.6,2.3-13.76c1.54-4.16,3.74-7.72,6.61-10.67,2.87-2.95,6.34-5.22,10.43-6.82,4.08-1.6,8.59-2.39,13.52-2.39s9.56.81,13.64,2.42c4.08,1.62,7.58,3.92,10.49,6.91,2.91,2.99,5.12,6.55,6.64,10.67s2.27,8.67,2.27,13.64Zm-16.61,0c0-6.75-1.48-12-4.46-15.76s-6.96-5.64-11.97-5.64c-3.23,0-6.08.84-8.55,2.52-2.47,1.68-4.37,4.15-5.7,7.43s-2,7.09-2,11.46.66,8.1,1.97,11.34c1.31,3.23,3.19,5.71,5.64,7.43,2.45,1.72,5.32,2.58,8.64,2.58,5.01,0,9-1.89,11.97-5.67,2.97-3.78,4.46-9,4.46-15.67Z"/>
        <path class="cls-3" d="m418.07,51.02v48.08c0,5.5-.59,10.22-1.76,14.19-1.17,3.96-3.05,7.23-5.64,9.82-2.59,2.59-5.97,4.51-10.15,5.76-4.18,1.25-9.39,1.88-15.61,1.88-5.7,0-10.79-.8-15.28-2.39s-7.94-3.66-10.37-6.18c-2.42-2.53-3.64-5.12-3.64-7.79,0-2.02.69-3.67,2.06-4.94,1.37-1.27,3.03-1.91,4.97-1.91,2.43,0,4.55,1.07,6.37,3.21.89,1.09,1.81,2.19,2.76,3.3s2,2.06,3.15,2.85,2.54,1.37,4.15,1.76,3.48.58,5.58.58c4.28,0,7.61-.6,9.97-1.79,2.37-1.19,4.02-2.86,4.97-5,.95-2.14,1.51-4.44,1.67-6.88.16-2.44.28-6.38.36-11.79-2.55,3.56-5.49,6.26-8.82,8.12-3.33,1.86-7.3,2.79-11.91,2.79-5.54,0-10.38-1.41-14.52-4.24-4.14-2.83-7.33-6.79-9.55-11.88-2.22-5.09-3.34-10.97-3.34-17.64,0-4.97.68-9.46,2.03-13.46,1.35-4,3.28-7.38,5.79-10.12,2.5-2.75,5.39-4.82,8.67-6.21,3.27-1.39,6.87-2.09,10.79-2.09,4.69,0,8.75.9,12.19,2.7,3.44,1.8,6.63,4.62,9.58,8.46v-2.24c0-2.87.71-5.09,2.12-6.67s3.23-2.36,5.46-2.36c3.19,0,5.31,1.04,6.37,3.12,1.05,2.08,1.58,5.08,1.58,9Zm-47.96,20.98c0,6.71,1.46,11.78,4.4,15.22,2.93,3.44,6.72,5.15,11.37,5.15,2.75,0,5.34-.74,7.79-2.21,2.45-1.47,4.44-3.7,5.97-6.67,1.54-2.97,2.3-6.58,2.3-10.82,0-6.75-1.48-12-4.46-15.76s-6.88-5.64-11.73-5.64-8.52,1.8-11.37,5.4c-2.85,3.6-4.28,8.71-4.28,15.34Z"/>
        <path class="cls-3" d="m443.17,31.19c-2.3,0-4.27-.71-5.91-2.12-1.64-1.41-2.46-3.42-2.46-6,0-2.34.84-4.27,2.52-5.79,1.68-1.52,3.63-2.27,5.85-2.27s4.04.69,5.7,2.06c1.66,1.37,2.49,3.38,2.49,6s-.81,4.54-2.43,5.97c-1.62,1.44-3.54,2.15-5.76,2.15Zm8.19,17.1v47.83c0,3.31-.79,5.82-2.37,7.52-1.58,1.7-3.58,2.55-6,2.55s-4.39-.87-5.91-2.61-2.27-4.22-2.27-7.46v-47.35c0-3.27.76-5.74,2.27-7.4,1.52-1.66,3.49-2.49,5.91-2.49s4.43.83,6,2.49c1.58,1.66,2.37,3.96,2.37,6.91Z"/>
      </g>
      <g>
        <path class="cls-1" d="m165.44,41.6c-.34.06-2.28.44-3.52,2.29-1.15,1.71-.89,3.49-.82,3.87,1.88,2.19,3.76,4.38,5.63,6.57-.49.45-1.21,1.21-1.76,2.35-.74,1.52-.79,2.92-.76,3.64-3.29.9-6.57,1.8-9.86,2.7-.28,1.51-.5,3.31-.53,5.34-.03,2.41.21,4.52.53,6.22,3.36,1.21,6.73,2.43,10.09,3.64.04.58.14,1.31.41,2.11.5,1.5,1.33,2.53,1.88,3.11-1.78,2.82-3.56,5.63-5.34,8.45,1.03,1.46,2.33,3.08,3.93,4.75,1.58,1.64,3.13,2.97,4.52,4.05,3.13-1.7,6.26-3.4,9.39-5.11.36.41,1.19,1.22,2.52,1.64.92.29,1.73.28,2.23.23,1.06,3.31,2.11,6.61,3.17,9.92,1.36.3,2.93.54,4.69.65,2.75.16,5.15-.08,7.04-.41,1.02-3.36,2.03-6.73,3.05-10.09.57,0,1.65-.06,2.82-.65.77-.39,1.3-.87,1.64-1.23,2.76,1.76,5.52,3.52,8.27,5.28,1.63-.75,4-2.09,6.28-4.4,1.59-1.61,2.68-3.23,3.4-4.52-1.64-2.93-3.29-5.87-4.93-8.8.46-.73.97-1.65,1.41-2.76.4-1.02.66-1.96.82-2.76,3.4-1.21,6.81-2.43,10.21-3.64.29-1.27.54-2.84.59-4.64.06-2.35-.24-4.35-.59-5.87-3.56-1.25-7.12-2.5-10.68-3.76-.02-.54-.12-1.45-.59-2.46-.49-1.07-1.17-1.75-1.58-2.11,1.84-2.29,3.68-4.58,5.52-6.87-.16-.93-.5-2.32-1.35-3.81-.67-1.19-1.45-2.06-2.05-2.64-5.71,2.61-11.42,5.22-17.14,7.83v6.84c5.14,4.45,7.04,11.63,4.75,18.02-2.26,6.32-8.18,10.66-14.91,10.92-7.12.25-13.66-3.99-16.31-10.56-2.61-6.47-.95-13.94,4.17-18.72.06-2.25.12-4.51.18-6.76-5.48-2.62-10.95-5.24-16.43-7.85Z"/>
        <path class="cls-2" d="m151.82.64c6.83.2,12.11,1.63,15.5,2.82,12.13,4.23,22.28,13.03,22.53,18.78,0,0,0,.05.12,5.52-4.36-4.36-8.44-7.1-11.38-8.8-5.82-3.37-13.33-6.23-13.38-6.11,0,0,0,0,0,0,.3.38,15,12.7,17.14,14.55,6.43,5.6,10.8,13.73,10.8,13.73,2.75-4.31,6.49-9.38,11.5-14.55,8.23-8.5,16.34-12.52,15.96-13.14-.35-.59-7.49,2.76-14.08,6.81-4.68,2.87-8.33,5.63-10.8,7.63.39-4.66,1.75-8.14,3.05-10.56C207.75.56,232.04.48,233.67.5c.27,5.14-.08,14.13-5.08,23.26-2.46,4.49-5.98,10.91-13.5,13.73-4.81,1.81-9.25,1.39-11.74.94-3.31,3.95-4.52,7.46-5.04,9.86-1.51,7.1,1.32,12.85-2.18,16.49-1.04,1.08-2.25,1.57-2.99,1.81-.84-.14-2.18-.5-3.29-1.53-3.59-3.33-.42-9.63-2.23-17.49-.54-2.34-1.72-5.71-4.69-9.51-2.4.46-6.39.85-10.8-.59-7.52-2.45-11.29-8.63-13.97-13.03-5.6-9.2-6.38-18.49-6.35-23.82Z"/>
      </g>
      <g>
        <path class="cls-2" d="m469.7,11.11c6.83.2,12.11,1.63,15.5,2.82,12.13,4.23,22.28,13.03,22.53,18.78,0,0,0,.05.12,5.52-4.36-4.36-8.44-7.1-11.38-8.8-5.82-3.37-13.33-6.23-13.38-6.11,0,0,0,0,0,0,.3.38,15,12.7,17.14,14.55,6.43,5.6,10.8,13.73,10.8,13.73,2.75-4.31,6.49-9.38,11.5-14.55,8.23-8.5,16.34-12.52,15.96-13.14-.35-.59-7.49,2.76-14.08,6.81-4.68,2.87-8.33,5.63-10.8,7.63.39-4.66,1.75-8.14,3.05-10.56,8.97-16.74,33.27-16.82,34.9-16.8.27,5.14-.08,14.13-5.08,23.26-2.46,4.49-5.98,10.91-13.5,13.73-4.81,1.81-9.25,1.39-11.74.94-3.31,3.95-4.52,7.46-5.04,9.86-1.51,7.1,1.32,12.85-2.18,16.49-1.04,1.08-2.25,1.57-2.99,1.81-.84-.14-2.18-.5-3.29-1.53-3.59-3.33-.42-9.63-2.23-17.49-.54-2.34-1.72-5.71-4.69-9.51-2.4.46-6.39.85-10.8-.59-7.52-2.45-11.29-8.63-13.97-13.03-5.6-9.2-6.38-18.49-6.35-23.82Z"/>
        <path class="cls-2" d="m469.7,107.94c6.83-.2,12.11-1.63,15.5-2.82,12.13-4.23,22.28-13.03,22.53-18.78,0,0,0-.05.12-5.52-4.36,4.36-8.44,7.1-11.38,8.8-5.82,3.37-13.33,6.23-13.38,6.11,0,0,0,0,0,0,.3-.38,15-12.7,17.14-14.55,6.43-5.6,10.8-13.73,10.8-13.73,2.75,4.31,6.49,9.38,11.5,14.55,8.23,8.5,16.34,12.52,15.96,13.14-.35.59-7.49-2.76-14.08-6.81-4.68-2.87-8.33-5.63-10.8-7.63.39,4.66,1.75,8.14,3.05,10.56,8.97,16.74,33.27,16.82,34.9,16.8.27-5.14-.08-14.13-5.08-23.26-2.46-4.49-5.98-10.91-13.5-13.73-4.81-1.81-9.25-1.39-11.74-.94-3.31-3.95-4.52-7.46-5.04-9.86-1.51-7.1,1.32-12.85-2.18-16.49-1.04-1.08-2.25-1.57-2.99-1.81-.84.14-2.18.5-3.29,1.53-3.59,3.33-.42,9.63-2.23,17.49-.54,2.34-1.72,5.71-4.69,9.51-2.4-.46-6.39-.85-10.8.59-7.52,2.45-11.29,8.63-13.97,13.03-5.6,9.2-6.38,18.49-6.35,23.82Z"/>
      </g>
    </g>
  </g>
</svg>